<?xml version="1.0" encoding="UTF-8"?>
<svg version="1.1" xmlns="http://www.w3.org/2000/svg" width="1254" height="1254">
<path d="M0 0 C413.82 0 827.64 0 1254 0 C1254 413.82 1254 827.64 1254 1254 C840.18 1254 426.36 1254 0 1254 C0 840.18 0 426.36 0 0 Z " fill="#010000" transform="translate(0,0)"/>
<path d="M0 0 C3.38324368 1.23354665 5.5990148 3.90344995 8.07713318 6.42276001 C8.67119461 7.01477707 9.26525604 7.60679413 9.87731934 8.2167511 C11.84212921 10.17855009 13.79597364 12.15089558 15.7497406 14.12368774 C17.11672544 15.49373188 18.48430329 16.86318456 19.85244751 18.23207092 C22.72262637 21.10685603 25.58782315 23.98648329 28.44920349 26.87002563 C32.10056844 30.54953954 35.76042775 34.22044832 39.42364979 37.88815403 C42.93133511 41.40102422 46.43433265 44.91855494 49.9372406 48.43618774 C50.92994933 49.43171756 50.92994933 49.43171756 51.94271278 50.44735909 C53.83776627 52.34936586 55.7294168 54.25469321 57.62010193 56.16104126 C58.44254395 56.98516006 58.44254395 56.98516006 59.28160095 57.82592773 C62.0921018 60.66696667 64.78230245 63.56864478 67.39077759 66.59681702 C71.35641646 71.1712973 75.60298796 75.43057918 79.89622498 79.69595337 C81.18299385 80.98053185 81.18299385 80.98053185 82.49575806 82.2910614 C84.82664714 84.61718211 87.15971303 86.9410931 89.49363518 89.26416969 C91.94949372 91.70996673 94.40204748 94.15907266 96.85484314 96.60794067 C103.0811568 102.82320631 109.31170314 109.03422083 115.54270935 115.24478149 C122.27222578 121.95221663 129.00098271 128.66040357 135.72484922 135.37350321 C138.15972398 137.80423702 140.59565419 140.2338929 143.03411865 142.661026 C145.7547396 145.36962902 148.47226399 148.08130477 151.18919373 150.79360962 C151.98524521 151.58449478 152.78129669 152.37537994 153.60147095 153.19023132 C157.67540405 157.26378067 161.55608669 161.42721066 165.31586075 165.79110909 C168.34287834 169.21572937 171.5870797 172.41962994 174.82640076 175.64199829 C175.57041641 176.38615997 176.31443207 177.13032166 177.08099365 177.89703369 C179.5163876 180.33173668 181.95529499 182.76288692 184.39427185 185.19400024 C186.09886735 186.89672773 187.80324003 188.59967832 189.50740051 190.30284119 C193.97811927 194.76975723 198.45183148 199.23366336 202.92619324 203.69692993 C207.47725816 208.23776137 212.02549366 212.78142485 216.57395935 217.32485962 C223.91802466 224.66015102 231.26381921 231.9937053 238.61184692 239.32502747 C239.87742411 240.5877675 241.14234968 241.85116111 242.40649796 243.11533165 C243.74561033 244.44891021 245.09643367 245.77072 246.45051575 247.08909607 C248.75016892 249.44507574 250.93536844 251.85659289 253.12129211 254.31726074 C258.46693769 260.28705106 264.1077425 265.93558906 269.78538513 271.58511353 C270.9381262 272.73593047 272.09063615 273.88697897 273.24293518 275.03823853 C275.70499876 277.49716542 278.16860077 279.95453627 280.63344193 282.41067886 C284.53705186 286.30065427 288.43674431 290.19454153 292.33589172 294.08898926 C300.61018945 302.35223589 308.88872649 310.61122933 317.16770935 318.86978149 C326.11534742 327.79535219 335.06223023 336.72167246 344.00423419 345.65288818 C347.87456688 349.51826209 351.74731854 353.38119041 355.62199044 357.24221444 C358.03632228 359.64905021 360.44854747 362.05798907 362.86022568 364.46748352 C363.97229194 365.57768916 365.08521652 366.68703587 366.19909668 367.7954216 C371.49611337 373.06714528 376.70449093 378.36310864 381.56709099 384.04331779 C383.68000009 386.47961042 385.93747994 388.75157101 388.22434998 391.02407837 C388.69205307 391.4903212 389.15975616 391.95656403 389.64163208 392.43693542 C390.641113 393.43265862 391.6417452 394.42722739 392.64346313 395.42070007 C394.23624426 397.00051283 395.82570092 398.58360735 397.41441345 400.16751099 C400.78768248 403.5294501 404.16488537 406.88741969 407.54270935 410.24478149 C411.46242771 414.14075499 415.38043677 418.03841688 419.29421997 421.94035339 C420.84686173 423.48659705 422.40252338 425.0297553 423.95835876 426.57278442 C430.39767716 432.97816728 436.64010649 439.42864169 442.04270935 446.74478149 C441.01366737 447.77049255 441.01366737 447.77049255 439.96383667 448.81692505 C433.47354001 455.28687906 426.98593945 461.75952591 420.50091457 468.2347641 C417.1674661 471.56301188 413.83310141 474.89033047 410.49656677 478.21548462 C407.27183293 481.42928903 404.04960546 484.64558738 400.82904243 487.86357117 C399.60484846 489.08592891 398.37978021 490.30741176 397.15379143 491.52796936 C391.53463623 497.1232375 385.97295106 502.70602613 380.82189941 508.74197388 C377.26840025 512.74209469 373.42521364 516.46939394 369.62715149 520.23550415 C368.06797209 521.78170889 366.51212314 523.33120046 364.95701599 524.88150024 C361.09705132 528.72822375 357.23161033 532.56942865 353.36631775 536.41079712 C350.08821493 539.66903845 346.81225943 542.92941139 343.53901672 546.1925354 C342.01961469 547.70554201 340.49719232 549.21546119 338.97459412 550.72525024 C334.43339479 555.24268965 330.04736259 559.82028322 325.87864685 564.68399048 C322.35874573 568.63498587 318.56896133 572.32601046 314.81234741 576.05030823 C313.28676958 577.56290481 311.76452849 579.07879351 310.24302673 580.5954895 C306.46653953 584.3587395 302.68457424 588.11646817 298.90275574 591.87435913 C295.69511067 595.06213817 292.4896164 598.25205192 289.28683472 601.44471741 C287.80067246 602.92448706 286.3114894 604.40116715 284.8221283 605.87771606 C280.31650581 610.36712345 275.97201695 614.90260427 271.83262634 619.73001099 C268.14285146 623.88330393 264.14433923 627.74275155 260.19895935 631.65103149 C258.78079285 633.06341082 257.36262928 634.4757931 255.94463348 635.88834381 C252.9820449 638.83790173 250.01486914 641.78284462 247.04850769 644.72860718 C244.59689904 647.16355256 242.14633604 649.59952966 239.698349 652.03811646 C237.87202506 653.85698763 236.04345574 655.67360801 234.21226501 657.48757935 C229.89360658 661.78920985 225.75421622 666.15716441 221.78282166 670.77981567 C218.52384333 674.45991207 215.00529661 677.88328775 211.51145935 681.33853149 C210.71671204 682.12949219 209.92196472 682.92045288 209.10313416 683.73538208 C205.73735387 687.08496722 202.36559887 690.42851419 198.99436951 693.77261353 C196.51880708 696.22999088 194.04632852 698.69044207 191.57395935 701.15103149 C190.8227179 701.89397461 190.07147644 702.63691772 189.29747009 703.40237427 C185.94861636 706.73581368 182.69168364 710.09242124 179.61106873 713.67642212 C175.4524138 718.50228525 170.9419919 722.95162384 166.41770935 727.43228149 C165.51198181 728.33422241 164.60625427 729.23616333 163.67308044 730.16543579 C160.31349629 733.51083593 156.94939673 736.85166542 153.58494568 740.19216919 C150.27636584 743.47769949 146.97168454 746.7671194 143.66770935 750.05728149 C142.807099 750.90959351 141.94648865 751.76190552 141.05979919 752.64004517 C136.8031686 756.87948149 132.73262255 761.19043043 128.81736755 765.74526978 C125.40703688 769.58769765 121.72441601 773.16367943 118.07395935 776.77603149 C117.23481995 777.61138428 116.39568054 778.44673706 115.53111267 779.30740356 C111.97416415 782.84814279 108.41124816 786.38285473 104.84886169 789.91812134 C102.23430771 792.5145021 99.62282751 795.11394715 97.01145935 797.71353149 C96.21647034 798.50022217 95.42148132 799.28691284 94.60240173 800.09744263 C93.84471497 800.85182617 93.0870282 801.60620972 92.30638123 802.38345337 C91.65020813 803.03438965 90.99403503 803.68532593 90.31797791 804.35598755 C88.39344665 806.37654402 86.56503677 808.43508803 84.741745 810.54574585 C81.18683323 814.63285469 77.43868978 818.4768844 73.59446716 822.29067993 C72.8862532 822.99743362 72.17803925 823.70418732 71.44836426 824.43235779 C69.92502719 825.95191679 68.40053699 827.47032053 66.87499237 828.98766327 C64.46004655 831.38975379 62.04831898 833.79503479 59.63737488 836.20114136 C54.52529637 841.30184397 49.40928575 846.3985913 44.29270935 851.49478149 C38.34734073 857.41653257 32.40360407 863.33990269 26.46405792 869.2674942 C24.08909351 871.63598123 21.71113633 874.00143532 19.33305359 876.36679077 C17.87967937 877.81653306 16.42644503 879.2664156 14.97337341 880.71646118 C13.98214226 881.69994286 13.98214226 881.69994286 12.97088623 882.70329285 C10.55173713 885.12216157 8.27474082 887.43176418 6.23454285 890.18405151 C5.64458527 890.95661285 5.64458527 890.95661285 5.04270935 891.74478149 C4.38270935 891.74478149 3.72270935 891.74478149 3.04270935 891.74478149 C3.04270935 892.40478149 3.04270935 893.06478149 3.04270935 893.74478149 C-1.09511279 893.23229894 -2.90814649 891.07047167 -5.70729065 888.11978149 C-8.81519448 884.90644729 -11.92309105 881.82435531 -15.33229065 878.93228149 C-18.27222763 876.41986523 -20.53879002 873.76790729 -22.95729065 870.74478149 C-24.06842325 869.77040368 -25.19579987 868.81445948 -26.33229065 867.86978149 C-31.28380853 863.66425501 -35.58407279 858.87636308 -39.94508362 854.0753479 C-42.35120565 851.44540057 -44.63836643 848.99561514 -47.4455719 846.78775024 C-49.65360113 844.9917949 -51.27672896 843.28634313 -53.10682678 841.13064575 C-56.91476027 836.7361109 -60.9514073 832.62346082 -65.07643127 828.52798462 C-65.85624863 827.74962753 -66.63606598 826.97127045 -67.43951416 826.16932678 C-69.11999601 824.49262763 -70.80163133 822.81708389 -72.48431396 821.14259338 C-75.15239358 818.48736571 -77.81725954 815.82894953 -80.4813385 813.16970825 C-86.13718365 807.52524903 -91.79691843 801.88469978 -97.45729065 796.24478149 C-104.02038626 789.70540184 -110.58177703 783.16432665 -117.13897705 776.61903381 C-119.75527716 774.00918219 -122.37458764 771.40237823 -124.99403381 768.79568481 C-126.60888825 767.18446536 -128.22360108 765.57310395 -129.83815002 763.96157837 C-130.5593956 763.24549911 -131.28064117 762.52941986 -132.02374268 761.79164124 C-135.96719614 757.84859596 -139.70974337 753.79781661 -143.35218048 749.575737 C-145.57514266 747.03999526 -147.93131286 744.65869881 -150.32252502 742.28189087 C-150.80973526 741.7961409 -151.2969455 741.31039093 -151.79891968 740.80992126 C-152.84096358 739.77163758 -153.88415901 738.73450847 -154.92843628 737.69847107 C-156.58842124 736.05144267 -158.245093 734.40114197 -159.90101624 732.75003052 C-163.41694716 729.24543511 -166.93681018 725.74480595 -170.45729065 722.24478149 C-174.5422165 718.18359142 -178.62543957 714.12071855 -182.70443726 710.05357361 C-184.32355836 708.44085567 -185.94569849 706.83121931 -187.56800842 705.22171021 C-195.73032066 697.09951799 -195.73032066 697.09951799 -199.34791565 692.85415649 C-204.06035956 687.34885981 -209.27188742 682.3202354 -214.41000366 677.21690369 C-216.33880828 675.30101681 -218.26433668 673.38188877 -220.18910217 671.46194458 C-224.27567906 667.38672177 -228.36618212 663.31545432 -232.45729065 659.24478149 C-237.20304963 654.5227283 -241.94712729 649.7990108 -246.6869812 645.07102966 C-248.57201841 643.19241233 -250.46007163 641.31686401 -252.34828186 639.44143677 C-257.4988389 634.31264466 -262.55645909 629.19008558 -267.27308655 623.65383911 C-270.84685279 619.60294904 -274.74571497 615.85686342 -278.58229065 612.05728149 C-279.94088196 610.70437012 -279.94088196 610.70437012 -281.32691956 609.3241272 C-284.20128634 606.46189586 -287.07876005 603.60282347 -289.95729065 600.74478149 C-293.75204403 596.97703817 -297.54310446 593.20562604 -301.33229065 589.43228149 C-302.192901 588.57996948 -303.05351135 587.72765747 -303.94020081 586.84951782 C-304.75794983 586.03507202 -305.57569885 585.22062622 -306.41822815 584.38150024 C-307.12769592 583.67726929 -307.8371637 582.97303833 -308.56813049 582.24746704 C-310.54536707 580.17627839 -312.42503452 578.07038717 -314.29664612 575.90542603 C-317.73397966 571.9512411 -321.34755624 568.22578834 -325.06666565 564.53775024 C-326.07545776 563.53114853 -326.07545776 563.53114853 -327.10462952 562.50421143 C-328.55101849 561.06159919 -329.99856046 559.6201422 -331.44715881 558.17974854 C-333.74559817 555.89418863 -336.04079773 553.60541821 -338.33522034 551.31582642 C-343.20643242 546.45598688 -348.0815647 541.60009184 -352.95729065 536.74478149 C-358.61170091 531.11404733 -364.264451 525.48166714 -369.91297913 519.84503174 C-372.16364864 517.6007987 -374.41733096 515.35962227 -376.67115784 513.11856079 C-378.06355985 511.72979456 -379.45581983 510.3408859 -380.84791565 508.95181274 C-381.4663031 508.33859161 -382.08469055 507.72537048 -382.72181702 507.09356689 C-386.42775773 503.38807012 -389.91630469 499.54961754 -393.34343147 495.58546448 C-395.43512693 493.19978654 -397.63646023 490.94572288 -399.88282776 488.70571899 C-400.78323288 487.8053894 -401.683638 486.90505981 -402.61132812 485.97744751 C-403.5690421 485.0248371 -404.52681212 484.07228302 -405.4846344 483.11978149 C-406.48376093 482.12252473 -407.48266345 481.12504347 -408.48135376 480.12734985 C-411.08476015 477.5277247 -413.69115735 474.93111918 -416.29823303 472.33517456 C-418.96833339 469.67538386 -421.63553342 467.01268809 -424.30299377 464.35025024 C-429.51829103 459.14561262 -434.73675781 453.94416809 -439.95729065 448.74478149 C-438.62942092 444.82916554 -437.04087108 442.46290919 -434.10597229 439.5687561 C-433.31497635 438.78121445 -432.52398041 437.99367279 -431.70901489 437.18226624 C-430.85379745 436.34566971 -429.99858002 435.50907318 -429.1174469 434.64712524 C-428.23955002 433.77584488 -427.36165314 432.90456451 -426.45715332 432.00688171 C-424.12743772 429.69659691 -421.79166662 427.3926852 -419.4523468 425.09213257 C-416.15889356 421.8508784 -412.87544729 418.59950649 -409.59313965 415.3469696 C-407.84677186 413.61755169 -406.09733096 411.8912303 -404.34451294 410.16835022 C-403.55036484 409.38396072 -402.75621674 408.59957123 -401.93800354 407.79141235 C-401.24010208 407.10478012 -400.54220062 406.41814789 -399.82315063 405.71070862 C-397.90279318 403.77553061 -397.90279318 403.77553061 -396.33349609 401.49186707 C-395.8793483 400.91532883 -395.4252005 400.33879059 -394.95729065 399.74478149 C-394.29729065 399.74478149 -393.63729065 399.74478149 -392.95729065 399.74478149 C-392.68648178 399.14832825 -392.41567291 398.551875 -392.13665771 397.93734741 C-390.97033333 395.7690292 -389.83147973 394.38215547 -388.0874176 392.66372681 C-387.22060112 391.80197845 -387.22060112 391.80197845 -386.33627319 390.92282104 C-385.71234177 390.31234924 -385.08841034 389.70187744 -384.4455719 389.07290649 C-383.47589729 388.11103424 -383.47589729 388.11103424 -382.4866333 387.12973022 C-380.41905039 385.07993388 -378.34492841 383.03692705 -376.26979065 380.99478149 C-374.21332819 378.96611887 -372.15840746 376.9359559 -370.10650635 374.90267944 C-368.83152506 373.63975483 -367.55388311 372.37950809 -366.27304077 371.12252808 C-363.32055606 368.20252513 -360.48933931 365.24276072 -357.79249573 362.0843811 C-352.64683595 356.12932839 -346.99255516 350.65690506 -341.41822815 345.10806274 C-340.20687725 343.89858163 -338.99575042 342.68887605 -337.78483582 341.47895813 C-334.61616348 338.31407771 -331.44450162 335.15221028 -328.27217102 331.99099731 C-325.04820851 328.77727991 -321.82708366 325.5607211 -318.60572815 322.34439087 C-313.40306047 317.15047571 -308.19871835 311.95824587 -302.99200439 306.76838684 C-301.64683644 305.42744921 -300.30205645 304.08612243 -298.95729065 302.74478149 C-298.10590515 301.90395523 -297.25451965 301.06312897 -296.37733459 300.19682312 C-294.07844441 297.86753714 -291.89629104 295.47604156 -289.73121643 293.02261353 C-285.17909996 287.93753883 -280.42423744 283.09933003 -275.57447815 278.29946899 C-274.28671982 277.01739059 -274.28671982 277.01739059 -272.97294617 275.70941162 C-270.26184223 273.01039307 -267.54749781 270.31467177 -264.83229065 267.61978149 C-261.2433957 264.05763607 -257.65793458 260.49208452 -254.07447815 256.92446899 C-253.26388947 256.12217865 -252.45330078 255.31988831 -251.6181488 254.49328613 C-248.1133291 251.00347734 -244.68832808 247.49910223 -241.46168518 243.74917603 C-237.45974417 239.09892848 -233.12813087 234.80884624 -228.76979065 230.49478149 C-227.47778748 229.20845825 -227.47778748 229.20845825 -226.15968323 227.89614868 C-222.50715082 224.2598321 -218.8486543 220.62953779 -215.19068909 216.99868774 C-212.50663909 214.33280552 -209.82565824 211.66386339 -207.14479065 208.99478149 C-206.32792786 208.18621704 -205.51106506 207.37765259 -204.66944885 206.54458618 C-200.50646301 202.39928214 -196.53788976 198.17188428 -192.70704651 193.71939087 C-189.51194757 190.11370366 -186.06953387 186.75555989 -182.64479065 183.36978149 C-181.87223938 182.60101685 -181.09968811 181.8322522 -180.3037262 181.04019165 C-177.03353029 177.7861832 -173.75735575 174.53821883 -170.48170471 171.28970337 C-168.0756378 168.90182797 -165.67266026 166.51087357 -163.26979065 164.11978149 C-162.54042297 163.39871216 -161.8110553 162.67764282 -161.05958557 161.9347229 C-157.74782636 158.63864473 -154.5343225 155.31323435 -151.4846344 151.77212524 C-147.60565186 147.27261562 -143.42883975 143.10851801 -139.20729065 138.93228149 C-138.39034729 138.11912476 -137.57340393 137.30596802 -136.73170471 136.46817017 C-133.27034023 133.02300809 -129.80300474 129.5838786 -126.3361969 126.14419556 C-123.79113877 123.61731641 -121.24915934 121.08736834 -118.70729065 118.55728149 C-117.93417542 117.7924646 -117.16106018 117.02764771 -116.36451721 116.23965454 C-112.99668782 112.88690608 -109.71237122 109.51964383 -106.62135315 105.90884399 C-102.38548126 100.99177524 -97.77596741 96.45119303 -93.17134094 91.88366699 C-91.54495796 90.27024635 -89.92189369 88.65354878 -88.29957581 87.03604126 C-84.27265642 83.02237048 -80.24026402 79.01421315 -76.20802307 75.00588989 C-72.78900445 71.60672426 -69.37212666 68.20543282 -65.95796204 64.8013916 C-64.37208059 63.22191084 -62.78317969 61.64551353 -61.19410706 60.06924438 C-56.53884651 55.43748784 -52.01598517 50.75894632 -47.74424744 45.7699585 C-41.14387471 38.28968637 -33.8831982 31.36155863 -26.85011292 24.2875061 C-24.78413958 22.20807846 -22.72572745 20.12156851 -20.6733551 18.02871704 C-18.17998347 15.48620843 -15.67472553 12.9560268 -13.16023827 10.43440437 C-11.74510499 9.00928733 -10.34216613 7.57209483 -8.93942261 6.13478088 C-8.08140549 5.2796138 -7.22338837 4.42444672 -6.33937073 3.54336548 C-5.58771133 2.78361923 -4.83605194 2.02387299 -4.06161499 1.24110413 C-1.95729065 -0.25521851 -1.95729065 -0.25521851 0 0 Z " fill="#E20005" transform="translate(627.9572906494141,179.25521850585938)"/>
<path d="M0 0 C4.17258919 1.63687603 6.96425073 4.69330968 10.05078125 7.8203125 C10.91632881 8.68654739 10.91632881 8.68654739 11.79936218 9.57028198 C13.01957662 10.79351367 14.23736351 12.01917105 15.45288086 13.24707031 C17.2904276 15.10271027 19.13568538 16.95038537 20.98242188 18.796875 C22.17234452 19.9917201 23.36181182 21.18701887 24.55078125 22.3828125 C25.09269608 22.92584015 25.6346109 23.4688678 26.19294739 24.02835083 C28.99884223 26.868206 31.68629501 29.76576435 34.2878418 32.79443359 C38.57078094 37.73538153 43.20035625 42.30651988 47.84375 46.90625 C49.2619165 48.31862932 50.68008007 49.73101161 52.09807587 51.14356232 C54.56323132 53.59787501 57.03170509 56.04884533 59.5 58.5 C62.44985631 61.42937203 65.39907839 64.35936285 68.34436035 67.29333496 C70.17068429 69.11220613 71.99925361 70.92882652 73.83044434 72.74279785 C74.66821411 73.5772644 75.50598389 74.41173096 76.36914062 75.27148438 C77.09637329 75.99348022 77.82360596 76.71547607 78.57287598 77.45935059 C80.51830661 79.49577607 82.35974263 81.5604006 84.19471741 83.69372559 C88.42118809 88.55538229 92.95241483 93.08494625 97.51538086 97.62890625 C98.44299225 98.55666367 99.37060364 99.48442108 100.32632446 100.44029236 C102.84632381 102.96057623 105.36937363 105.47778537 107.89302135 107.99441528 C110.53868837 110.63379109 113.18148545 113.27603752 115.82460022 115.91796875 C120.8195527 120.90982481 125.81704664 125.89912834 130.81547982 130.88749886 C136.51038988 136.57119506 142.20242878 142.257763 147.89423931 147.94456291 C159.59298854 159.63288606 171.2953024 171.31763348 183 183 C181.30705109 186.60818899 179.31792155 188.90064303 176.45703125 191.703125 C175.09288086 193.05083984 175.09288086 193.05083984 173.70117188 194.42578125 C172.73865469 195.36756931 171.77576181 196.30897355 170.8125 197.25 C168.94157487 199.08606317 167.07304046 200.92456595 165.20703125 202.765625 C163.96143433 203.98427246 163.96143433 203.98427246 162.69067383 205.22753906 C160.61946623 207.36170415 158.67208402 209.51176215 156.73510742 211.76269531 C152.71088893 216.40244734 148.39513587 220.71291571 144.03125 225.03125 C142.77254089 226.28427917 142.77254089 226.28427917 141.48840332 227.56262207 C137.9314548 231.10336129 134.3685388 234.63807324 130.80615234 238.17333984 C128.19159836 240.7697206 125.58011816 243.36916566 122.96875 245.96875 C122.17376099 246.75544067 121.37877197 247.54213135 120.55969238 248.35266113 C116.43901359 252.45537535 112.51439706 256.64499396 108.72161865 261.05130005 C105.71723288 264.45196396 102.49333596 267.62912373 99.2734375 270.82421875 C98.56273102 271.53351028 97.85202454 272.24280182 97.11978149 272.97358704 C94.87388523 275.21394485 92.62452373 277.45078512 90.375 279.6875 C88.85914163 281.1983336 87.34351466 282.7093994 85.828125 284.22070312 C83.04879046 286.99191632 80.26814884 289.76180255 77.48583984 292.5300293 C76.88284561 293.13069717 76.27985138 293.73136505 75.65858459 294.35023499 C74.23372261 295.76752022 72.80442591 297.18034456 71.37426758 298.59228516 C68.69202901 301.31230951 66.1200774 304.12352173 63.55078125 306.94921875 C56.97731027 314.12217681 50.10617166 320.97462472 43.1875 327.8125 C33.67380159 337.16913386 33.67380159 337.16913386 24.71948242 347.0534668 C21.03466494 351.2248497 17.01597138 355.08561237 13.0625 359 C12.18787109 359.87011719 11.31324219 360.74023438 10.41210938 361.63671875 C8.27702551 363.76013549 6.13962795 365.88116378 4 368 C0.35637416 366.4632131 -1.9686653 364.27907086 -4.74926758 361.49365234 C-5.20677902 361.03803925 -5.66429047 360.58242615 -6.13566589 360.11300659 C-7.64354747 358.60882196 -9.14411622 357.09756721 -10.64453125 355.5859375 C-11.69785128 354.53142395 -12.7515428 353.47728136 -13.80558777 352.42349243 C-16.01518823 350.21232846 -18.22139297 347.99784988 -20.42504883 345.78076172 C-23.23062529 342.95828968 -26.04264402 340.14234976 -28.85706043 337.3286953 C-31.03570012 335.14978158 -33.21170745 332.9682546 -35.38687706 330.78587723 C-36.4215716 329.74802913 -37.45684766 328.71076043 -38.49274635 327.67411423 C-47.54745189 318.60572756 -47.54745189 318.60572756 -51.5065918 313.98681641 C-55.56628906 309.25632378 -59.99212125 304.89550093 -64.41555786 300.50927734 C-65.97473727 298.9630726 -67.53058621 297.41358104 -69.08569336 295.86328125 C-72.38763136 292.57267017 -75.69350416 289.28603038 -79 286 C-82.83711476 282.18663495 -86.67251675 278.37157851 -90.50369263 274.55224609 C-92.02309466 273.03923948 -93.54551703 271.5293203 -95.06811523 270.01953125 C-96.01561291 269.07567206 -96.96296712 268.13166882 -97.91015625 267.1875 C-98.72621338 266.37667969 -99.54227051 265.56585937 -100.38305664 264.73046875 C-102.45158138 262.57220952 -104.41889738 260.38777004 -106.37257385 258.12841797 C-109.80577156 254.17465316 -113.41640946 250.4485396 -117.12866211 246.7578125 C-117.80268066 246.08364792 -118.47669922 245.40948334 -119.17114258 244.71488953 C-121.37084431 242.51587724 -123.57405265 240.3204154 -125.77734375 238.125 C-127.31455522 236.58965616 -128.85154416 235.05408949 -130.38832092 233.51831055 C-134.41214346 229.49828606 -138.43896121 225.48127515 -142.46643066 221.46490479 C-146.58426718 217.35734099 -150.69923554 213.24690605 -154.81445312 209.13671875 C-162.87351279 201.08834852 -170.93574269 193.04316209 -179 185 C-177.69056896 182.10490816 -176.29733499 180.05407463 -174.03833008 177.82714844 C-173.44043167 177.23262878 -172.84253326 176.63810913 -172.22651672 176.02557373 C-171.58071152 175.39322815 -170.93490631 174.76088257 -170.26953125 174.109375 C-169.60088547 173.44593079 -168.93223969 172.78248657 -168.24333191 172.09893799 C-166.10441918 169.97781594 -163.9589638 167.86347832 -161.8125 165.75 C-159.68471241 163.65000293 -157.55846171 161.54850868 -155.43522644 159.44390869 C-154.11572591 158.13647456 -152.79356395 156.83171857 -151.46821594 155.5302124 C-148.39553945 152.4902371 -145.44427847 149.4058989 -142.62573242 146.12792969 C-138.51130411 141.36278353 -134.06554094 136.95879768 -129.59375 132.53125 C-128.71021851 131.65150513 -127.82668701 130.77176025 -126.91638184 129.86535645 C-123.6402768 126.60343055 -120.3596502 123.34607436 -117.07867432 120.08905029 C-113.85169462 116.8851274 -110.6286192 113.67730884 -107.40625 110.46875 C-106.56751343 109.63831177 -105.72877686 108.80787354 -104.86462402 107.95227051 C-100.63085565 103.73603326 -96.58345684 99.44299269 -92.68835449 94.91320801 C-89.79177252 91.63086188 -86.67684611 88.57408282 -83.5625 85.5 C-82.87873291 84.82001953 -82.19496582 84.14003906 -81.49047852 83.43945312 C-78.60262227 80.56774857 -75.70876925 77.70211562 -72.81542969 74.8359375 C-70.68734275 72.72607213 -68.56237083 70.61310355 -66.4375 68.5 C-65.79562744 67.86642578 -65.15375488 67.23285156 -64.49243164 66.58007812 C-61.38794001 63.49219238 -58.40114899 60.35749079 -55.54101562 57.04101562 C-51.85512694 52.77333471 -47.91556639 48.8060403 -43.90625 44.84375 C-43.15589478 44.0971814 -42.40553955 43.35061279 -41.63244629 42.5814209 C-38.45783496 39.42298888 -35.27724084 36.27060721 -32.09716797 33.11767578 C-29.76059639 30.79930255 -27.42712001 28.4778448 -25.09375 26.15625 C-24.03250916 25.10745667 -24.03250916 25.10745667 -22.9498291 24.03747559 C-18.97039313 20.0774388 -15.1791946 16.01772034 -11.52708435 11.75317383 C-9.3152277 9.21384508 -6.96017659 6.86483171 -4.5625 4.5 C-3.26505859 3.21609375 -3.26505859 3.21609375 -1.94140625 1.90625 C-1.30074219 1.2771875 -0.66007813 0.648125 0 0 Z " fill="#010000" transform="translate(626,442)"/>
<path d="M0 0 C0 5.8064006 -4.69715407 9.92736404 -8.59397888 13.84622192 C-9.17011429 14.41517181 -9.74624969 14.9841217 -10.33984375 15.5703125 C-11.2458004 16.47558182 -11.2458004 16.47558182 -12.1700592 17.3991394 C-13.44099913 18.66707368 -14.7143531 19.93259235 -15.98999023 21.19580078 C-17.9333637 23.12090259 -19.86860016 25.05390149 -21.80273438 26.98828125 C-23.04380005 28.22443116 -24.28532133 29.46012387 -25.52734375 30.6953125 C-26.10145493 31.26831085 -26.6755661 31.8413092 -27.26707458 32.43167114 C-30.37400222 35.50238097 -33.55567791 38.30283086 -37 41 C-38.30600236 42.38431198 -39.57993099 43.79991881 -40.8125 45.25 C-41.41707031 45.95640625 -42.02164063 46.6628125 -42.64453125 47.390625 C-43.09183594 47.92171875 -43.53914062 48.4528125 -44 49 C-44.66 48.67 -45.32 48.34 -46 48 C-44.625 46 -44.625 46 -43 44 C-42.34 44 -41.68 44 -41 44 C-40.72919113 43.40354675 -40.45838226 42.80709351 -40.17936707 42.19256592 C-39.01304268 40.0242477 -37.87418908 38.63737398 -36.13012695 36.91894531 C-35.5522493 36.34444641 -34.97437164 35.76994751 -34.37898254 35.17803955 C-33.4430854 34.26233185 -33.4430854 34.26233185 -32.48828125 33.328125 C-31.84183151 32.68687683 -31.19538177 32.04562866 -30.52934265 31.38494873 C-28.46175974 29.33515238 -26.38763776 27.29214555 -24.3125 25.25 C-22.25603754 23.22133738 -20.20111681 21.1911744 -18.1492157 19.15789795 C-16.87423441 17.89497334 -15.59659246 16.6347266 -14.31575012 15.37774658 C-10.52195342 11.62568734 -6.9502168 7.74078875 -3.47428894 3.69207764 C-2.36415661 2.41795149 -1.19494586 1.19494586 0 0 Z " fill="#D30205" transform="translate(276,535)"/>
<path d="M0 0 C0.99 0.33 1.98 0.66 3 1 C-0.47750014 4.55169189 -3.9647666 8.09338919 -7.46142578 11.6262207 C-8.64938098 12.82925642 -9.83462895 14.03497173 -11.01708984 15.2434082 C-12.71787064 16.98060371 -14.42817535 18.70790934 -16.140625 20.43359375 C-16.66682434 20.97527695 -17.19302368 21.51696014 -17.73516846 22.07505798 C-22.31497381 26.65693794 -22.31497381 26.65693794 -26 27 C-20.89551178 20.81865131 -15.31705058 15.20177122 -9.625 9.5625 C-8.69816406 8.64017578 -7.77132812 7.71785156 -6.81640625 6.76757812 C-4.54654154 4.50941375 -2.27436462 2.25363058 0 0 Z " fill="#D10104" transform="translate(681,757)"/>
<path d="M0 0 C0.495 1.485 0.495 1.485 1 3 C-0.375 4.5 -0.375 4.5 -2 6 C-2.66 6 -3.32 6 -4 6 C-4.22429688 6.56203125 -4.44859375 7.1240625 -4.6796875 7.703125 C-6.39443924 10.68618424 -8.53700055 12.47933018 -11.125 14.75 C-19.0767121 21.83441142 -26.51872245 29.42584944 -34 37 C-34.66 36.67 -35.32 36.34 -36 36 C-24.12 24.12 -12.24 12.24 0 0 Z " fill="#1F0000" transform="translate(751,950)"/>
<path d="M0 0 C0.99 0.33 1.98 0.66 3 1 C-3.93 7.93 -10.86 14.86 -18 22 C-18 18.41754104 -17.46692659 18.06668982 -15.078125 15.56640625 C-14.46453125 14.91736328 -13.8509375 14.26832031 -13.21875 13.59960938 C-12.5690625 12.92736328 -11.919375 12.25511719 -11.25 11.5625 C-10.61578125 10.89412109 -9.9815625 10.22574219 -9.328125 9.53710938 C-6.2619114 6.31439112 -3.16554607 3.12557705 0 0 Z " fill="#D20104" transform="translate(397,412)"/>
<path d="M0 0 C6.59498929 2.93110635 11.84449591 8.16792366 16 14 C16 14.99 16 15.98 16 17 C10.06025076 12.19764955 4.88300149 6.87953241 0 1 C0 0.67 0 0.34 0 0 Z " fill="#CE0103" transform="translate(703,518)"/>
<path d="M0 0 C0 4.27623368 -2.51959431 6.12167244 -5.3125 9.0625 C-5.81201172 9.60455078 -6.31152344 10.14660156 -6.82617188 10.70507812 C-9.10457112 13.14643573 -11.21018132 15.14012088 -14 17 C-14 14 -14 14 -12.71484375 12.37426758 C-12.12832031 11.80345459 -11.54179687 11.2326416 -10.9375 10.64453125 C-10.30585938 10.02255859 -9.67421875 9.40058594 -9.0234375 8.75976562 C-8.35570312 8.11716797 -7.68796875 7.47457031 -7 6.8125 C-6.33226562 6.15830078 -5.66453125 5.50410156 -4.9765625 4.83007812 C-3.32421559 3.21313865 -1.66528399 1.60359509 0 0 Z " fill="#CD0104" transform="translate(204,609)"/>
<path d="M0 0 C0.69921875 1.7734375 0.69921875 1.7734375 1 4 C-0.29296875 5.8515625 -0.29296875 5.8515625 -2.1875 7.625 C-2.79980469 8.21539063 -3.41210938 8.80578125 -4.04296875 9.4140625 C-5.95234253 10.96137937 -7.76407067 11.99854163 -10 13 C-8.60004691 8.10016418 -5.91794204 6.10170412 -2 3 C-1.34 2.01 -0.68 1.02 0 0 Z " fill="#D30204" transform="translate(700,737)"/>
<path d="M0 0 C0.85851562 0.36931641 0.85851562 0.36931641 1.734375 0.74609375 C0.50038437 2.11486491 -0.75343123 3.46578541 -2.015625 4.80859375 C-3.05976562 5.93974609 -3.05976562 5.93974609 -4.125 7.09375 C-6.265625 8.74609375 -6.265625 8.74609375 -8.53125 8.4921875 C-9.10359375 8.24597656 -9.6759375 7.99976563 -10.265625 7.74609375 C-9.03163437 6.37732259 -7.77781877 5.02640209 -6.515625 3.68359375 C-5.81953125 2.92949219 -5.1234375 2.17539062 -4.40625 1.3984375 C-2.265625 -0.25390625 -2.265625 -0.25390625 0 0 Z " fill="#CB0106" transform="translate(529.265625,279.25390625)"/>
<path d="M0 0 C0.99 0.33 1.98 0.66 3 1 C1.21427748 2.83947337 -0.57802449 4.67157741 -2.375 6.5 C-2.88289062 7.02464844 -3.39078125 7.54929688 -3.9140625 8.08984375 C-5.23832604 9.43153181 -6.61605865 10.71995815 -8 12 C-8.66 12 -9.32 12 -10 12 C-8.52278578 8.54798361 -6.56205999 6.35038064 -3.875 3.75 C-3.15054688 3.04359375 -2.42609375 2.3371875 -1.6796875 1.609375 C-1.12539063 1.07828125 -0.57109375 0.5471875 0 0 Z " fill="#CD0106" transform="translate(586,219)"/>
<path d="M0 0 C3.36179774 1.44077046 5.59156268 3.24750021 8 6 C8 6.66 8 7.32 8 8 C9.32 8.66 10.64 9.32 12 10 C11.34 10.66 10.68 11.32 10 12 C8.32737283 10.38113585 6.66204463 8.7547271 5 7.125 C4.071875 6.22007812 3.14375 5.31515625 2.1875 4.3828125 C0 2 0 2 0 0 Z " fill="#C40002" transform="translate(490,933)"/>
<path d="M0 0 C0.33 0.99 0.66 1.98 1 3 C-0.92936358 4.842617 -2.86755967 6.67395452 -4.8125 8.5 C-5.63331055 9.28697266 -5.63331055 9.28697266 -6.47070312 10.08984375 C-10.66015625 14 -10.66015625 14 -14 14 C-9.38 9.38 -4.76 4.76 0 0 Z " fill="#140000" transform="translate(518,553)"/>
<path d="M0 0 C0.33 0.66 0.66 1.32 1 2 C-0.07192184 3.3218362 -1.15802695 4.63217927 -2.25 5.9375 C-2.85328125 6.66839844 -3.4565625 7.39929688 -4.078125 8.15234375 C-6.10741134 10.10326334 -7.254407 10.61731779 -10 11 C-6.79239749 7.19364503 -3.59253891 3.45436433 0 0 Z " fill="#C30205" transform="translate(795,640)"/>
<path d="M0 0 C3.62613199 0.56959153 5.25517741 1.92374534 7.75 4.5625 C8.36359375 5.20316406 8.9771875 5.84382812 9.609375 6.50390625 C10.06828125 6.99761719 10.5271875 7.49132812 11 8 C10.34 8.66 9.68 9.32 9 10 C7.49702124 8.52386015 5.99768715 7.04400843 4.5 5.5625 C3.6646875 4.73878906 2.829375 3.91507813 1.96875 3.06640625 C0 1 0 1 0 0 Z " fill="#CB0104" transform="translate(719,535)"/>
<path d="M0 0 C3.21043882 1.38188453 5.04936365 2.92421903 7.25 5.625 C8.03117188 6.57246094 8.03117188 6.57246094 8.828125 7.5390625 C9.40820312 8.26222656 9.40820312 8.26222656 10 9 C7 9 7 9 5.17578125 7.5390625 C4.56089844 6.90742187 3.94601562 6.27578125 3.3125 5.625 C2.68988281 4.99851562 2.06726563 4.37203125 1.42578125 3.7265625 C0 2 0 2 0 0 Z " fill="#C40106" transform="translate(509,690)"/>
<path d="M0 0 C0 3.99897642 -1.35316035 5.06701552 -4 8 C-5.63356951 9.37368345 -7.2925002 10.71937515 -9 12 C-9.66 11.67 -10.32 11.34 -11 11 C-7.37 7.37 -3.74 3.74 0 0 Z " fill="#CC0306" transform="translate(807,628)"/>
<path d="M0 0 C0.66 0.66 1.32 1.32 2 2 C1.01 2.33 0.02 2.66 -1 3 C-1 3.66 -1 4.32 -1 5 C-2.53125 6.5078125 -2.53125 6.5078125 -4.5 8.125 C-5.1496875 8.66382813 -5.799375 9.20265625 -6.46875 9.7578125 C-6.9740625 10.16773438 -7.479375 10.57765625 -8 11 C-8.66 10.67 -9.32 10.34 -10 10 C-6.7 6.7 -3.4 3.4 0 0 Z " fill="#130000" transform="translate(998,698)"/>
<path d="M0 0 C0.66 0 1.32 0 2 0 C0.4169423 4.2742558 -2.50568404 6.26531794 -6 9 C-5.75 7.125 -5.75 7.125 -5 5 C-3.68352881 4.30062468 -2.34977849 3.63270867 -1 3 C-0.67 2.01 -0.34 1.02 0 0 Z " fill="#C90203" transform="translate(713,986)"/>
<path d="M0 0 C-1.39332574 3.36720387 -2.9789286 4.9859524 -6 7 C-6 4 -6 4 -4.125 1.8125 C-2 0 -2 0 0 0 Z " fill="#C90203" transform="translate(761,939)"/>
<path d="M0 0 C3.36720387 1.39332574 4.9859524 2.9789286 7 6 C4 6 4 6 1.8125 4.125 C0 2 0 2 0 0 Z " fill="#D00104" transform="translate(322,762)"/>
<path d="M0 0 C-1.39332574 3.36720387 -2.9789286 4.9859524 -6 7 C-5.37162381 3.35541809 -4.14650034 0 0 0 Z " fill="#CE0204" transform="translate(957,739)"/>
<path d="M0 0 C0.66 0.33 1.32 0.66 2 1 C0.35 2.98 -1.3 4.96 -3 7 C-3.66 6.34 -4.32 5.68 -5 5 C-3.35 3.35 -1.7 1.7 0 0 Z " fill="#CC0104" transform="translate(528,540)"/>
</svg>
